<svg width="1112" height="656" viewBox="0 0 1112 656" fill="none" xmlns="http://www.w3.org/2000/svg">
<path d="M639.573 150.793C641.836 150.793 643.67 148.959 643.67 146.696C643.67 144.434 641.836 142.6 639.573 142.6C637.311 142.6 635.477 144.434 635.477 146.696C635.477 148.959 637.311 150.793 639.573 150.793Z" fill="#97A0F3"/>
<path d="M645.487 140.551C647.75 140.551 649.584 138.717 649.584 136.454C649.584 134.192 647.75 132.357 645.487 132.357C643.225 132.357 641.391 134.192 641.391 136.454C641.391 138.717 643.225 140.551 645.487 140.551Z" fill="#97A0F3"/>
<path d="M633.659 140.551C635.922 140.551 637.756 138.717 637.756 136.454C637.756 134.192 635.922 132.357 633.659 132.357C631.397 132.357 629.562 134.192 629.562 136.454C629.562 138.717 631.397 140.551 633.659 140.551Z" fill="#97A0F3"/>
<path d="M651.402 130.309C653.664 130.309 655.498 128.475 655.498 126.212C655.498 123.949 653.664 122.115 651.402 122.115C649.139 122.115 647.305 123.949 647.305 126.212C647.305 128.475 649.139 130.309 651.402 130.309Z" fill="#97A0F3"/>
<path d="M639.573 130.309C641.836 130.309 643.67 128.475 643.67 126.212C643.67 123.949 641.836 122.115 639.573 122.115C637.311 122.115 635.477 123.949 635.477 126.212C635.477 128.475 637.311 130.309 639.573 130.309Z" fill="#97A0F3"/>
<path d="M947.066 355.637C949.328 355.637 951.162 353.803 951.162 351.54C951.162 349.278 949.328 347.443 947.066 347.443C944.803 347.443 942.969 349.278 942.969 351.54C942.969 353.803 944.803 355.637 947.066 355.637Z" fill="#97A0F3"/>
<path d="M947.065 396.283C949.15 396.283 950.84 394.593 950.84 392.508C950.84 390.423 949.15 388.732 947.065 388.732C944.979 388.732 943.289 390.423 943.289 392.508C943.289 394.593 944.979 396.283 947.065 396.283Z" fill="#97A0F3"/>
<path d="M935.237 437.575C937.5 437.575 939.334 435.74 939.334 433.478C939.334 431.215 937.5 429.381 935.237 429.381C932.975 429.381 931.141 431.215 931.141 433.478C931.141 435.74 932.975 437.575 935.237 437.575Z" fill="#97A0F3"/>
<path d="M941.152 447.815C943.414 447.815 945.248 445.981 945.248 443.718C945.248 441.455 943.414 439.621 941.152 439.621C938.889 439.621 937.055 441.455 937.055 443.718C937.055 445.981 938.889 447.815 941.152 447.815Z" fill="#97A0F3"/>
<path d="M958.89 437.575C961.152 437.575 962.987 435.74 962.987 433.478C962.987 431.215 961.152 429.381 958.89 429.381C956.627 429.381 954.793 431.215 954.793 433.478C954.793 435.74 956.627 437.575 958.89 437.575Z" fill="#97A0F3"/>
<path d="M964.804 427.332C967.067 427.332 968.901 425.498 968.901 423.236C968.901 420.973 967.067 419.139 964.804 419.139C962.541 419.139 960.707 420.973 960.707 423.236C960.707 425.498 962.541 427.332 964.804 427.332Z" fill="#97A0F3"/>
<path d="M958.89 458.057C961.152 458.057 962.987 456.223 962.987 453.96C962.987 451.697 961.152 449.863 958.89 449.863C956.627 449.863 954.793 451.697 954.793 453.96C954.793 456.223 956.627 458.057 958.89 458.057Z" fill="#97A0F3"/>
<path d="M970.718 437.575C972.981 437.575 974.815 435.74 974.815 433.478C974.815 431.215 972.981 429.381 970.718 429.381C968.455 429.381 966.621 431.215 966.621 433.478C966.621 435.74 968.455 437.575 970.718 437.575Z" fill="#97A0F3"/>
<path d="M178.331 232.731C180.594 232.731 182.428 230.897 182.428 228.634C182.428 226.371 180.594 224.537 178.331 224.537C176.069 224.537 174.234 226.371 174.234 228.634C174.234 230.897 176.069 232.731 178.331 232.731Z" fill="#97A0F3"/>
<path d="M172.421 242.973C174.684 242.973 176.518 241.139 176.518 238.876C176.518 236.614 174.684 234.779 172.421 234.779C170.158 234.779 168.324 236.614 168.324 238.876C168.324 241.139 170.158 242.973 172.421 242.973Z" fill="#97A0F3"/>
<path d="M166.507 232.731C168.77 232.731 170.604 230.897 170.604 228.634C170.604 226.371 168.77 224.537 166.507 224.537C164.244 224.537 162.41 226.371 162.41 228.634C162.41 230.897 164.244 232.731 166.507 232.731Z" fill="#97A0F3"/>
<path d="M160.593 242.973C162.856 242.973 164.69 241.139 164.69 238.876C164.69 236.614 162.856 234.779 160.593 234.779C158.33 234.779 156.496 236.614 156.496 238.876C156.496 241.139 158.33 242.973 160.593 242.973Z" fill="#97A0F3"/>
<path d="M154.683 232.731C156.945 232.731 158.78 230.897 158.78 228.634C158.78 226.371 156.945 224.537 154.683 224.537C152.42 224.537 150.586 226.371 150.586 228.634C150.586 230.897 152.42 232.731 154.683 232.731Z" fill="#97A0F3"/>
<path d="M142.855 232.731C145.117 232.731 146.952 230.897 146.952 228.634C146.952 226.371 145.117 224.537 142.855 224.537C140.592 224.537 138.758 226.371 138.758 228.634C138.758 230.897 140.592 232.731 142.855 232.731Z" fill="#97A0F3"/>
<path d="M1018.03 519.51C1020.29 519.51 1022.12 517.676 1022.12 515.413C1022.12 513.151 1020.29 511.316 1018.03 511.316C1015.76 511.316 1013.93 513.151 1013.93 515.413C1013.93 517.676 1015.76 519.51 1018.03 519.51Z" fill="#97A0F3"/>
<path d="M1023.94 529.752C1026.2 529.752 1028.03 527.918 1028.03 525.655C1028.03 523.393 1026.2 521.559 1023.94 521.559C1021.67 521.559 1019.84 523.393 1019.84 525.655C1019.84 527.918 1021.67 529.752 1023.94 529.752Z" fill="#97A0F3"/>
<path d="M1029.85 519.51C1032.11 519.51 1033.95 517.676 1033.95 515.413C1033.95 513.151 1032.11 511.316 1029.85 511.316C1027.59 511.316 1025.75 513.151 1025.75 515.413C1025.75 517.676 1027.59 519.51 1029.85 519.51Z" fill="#97A0F3"/>
<path d="M1035.76 509.268C1038.03 509.268 1039.86 507.434 1039.86 505.171C1039.86 502.908 1038.03 501.074 1035.76 501.074C1033.5 501.074 1031.67 502.908 1031.67 505.171C1031.67 507.434 1033.5 509.268 1035.76 509.268Z" fill="#97A0F3"/>
<path d="M1035.76 529.752C1038.03 529.752 1039.86 527.918 1039.86 525.655C1039.86 523.393 1038.03 521.559 1035.76 521.559C1033.5 521.559 1031.67 523.393 1031.67 525.655C1031.67 527.918 1033.5 529.752 1035.76 529.752Z" fill="#97A0F3"/>
<path d="M1041.67 519.51C1043.94 519.51 1045.77 517.676 1045.77 515.413C1045.77 513.151 1043.94 511.316 1041.67 511.316C1039.41 511.316 1037.58 513.151 1037.58 515.413C1037.58 517.676 1039.41 519.51 1041.67 519.51Z" fill="#97A0F3"/>
<path d="M1047.59 529.752C1049.85 529.752 1051.69 527.918 1051.69 525.655C1051.69 523.393 1049.85 521.559 1047.59 521.559C1045.33 521.559 1043.49 523.393 1043.49 525.655C1043.49 527.918 1045.33 529.752 1047.59 529.752Z" fill="#97A0F3"/>
<path d="M1053.5 519.51C1055.77 519.51 1057.6 517.676 1057.6 515.413C1057.6 513.151 1055.77 511.316 1053.5 511.316C1051.24 511.316 1049.41 513.151 1049.41 515.413C1049.41 517.676 1051.24 519.51 1053.5 519.51Z" fill="#97A0F3"/>
<path d="M1059.42 509.268C1061.68 509.268 1063.51 507.434 1063.51 505.171C1063.51 502.908 1061.68 501.074 1059.42 501.074C1057.15 501.074 1055.32 502.908 1055.32 505.171C1055.32 507.434 1057.15 509.268 1059.42 509.268Z" fill="#97A0F3"/>
<path d="M1059.42 529.752C1061.68 529.752 1063.51 527.918 1063.51 525.655C1063.51 523.393 1061.68 521.559 1059.42 521.559C1057.15 521.559 1055.32 523.393 1055.32 525.655C1055.32 527.918 1057.15 529.752 1059.42 529.752Z" fill="#97A0F3"/>
<path d="M1065.33 519.51C1067.59 519.51 1069.43 517.676 1069.43 515.413C1069.43 513.151 1067.59 511.316 1065.33 511.316C1063.07 511.316 1061.23 513.151 1061.23 515.413C1061.23 517.676 1063.07 519.51 1065.33 519.51Z" fill="#97A0F3"/>
<path d="M1071.25 509.268C1073.51 509.268 1075.34 507.434 1075.34 505.171C1075.34 502.908 1073.51 501.074 1071.25 501.074C1068.98 501.074 1067.15 502.908 1067.15 505.171C1067.15 507.434 1068.98 509.268 1071.25 509.268Z" fill="#97A0F3"/>
<path d="M1054.18 642.675H1050.65L1049.78 645.184H1048.42L1051.78 636.084H1053.06L1056.44 645.184H1055.07L1054.18 642.675ZM1053.8 641.609L1052.43 637.787H1052.37L1051.03 641.609H1053.8ZM1064.03 645.184H1062.67V643.949H1062.58C1062.41 644.33 1062.14 644.651 1061.78 644.911C1061.41 645.171 1060.97 645.301 1060.45 645.301C1059.86 645.301 1059.38 645.162 1059.01 644.885C1058.64 644.599 1058.38 644.239 1058.21 643.806C1058.05 643.364 1057.97 642.9 1057.97 642.415V638.333H1059.31V642.22C1059.31 642.826 1059.46 643.299 1059.76 643.637C1060.06 643.975 1060.47 644.144 1060.97 644.144C1061.5 644.144 1061.92 643.966 1062.22 643.611C1062.52 643.247 1062.67 642.783 1062.67 642.22V638.333H1064.03V645.184ZM1068.4 645.275C1067.84 645.275 1067.35 645.166 1066.95 644.95C1066.54 644.733 1066.23 644.451 1066.01 644.105C1065.79 643.749 1065.69 643.381 1065.69 643V642.935H1067.01V642.987C1067.01 643.299 1067.14 643.58 1067.39 643.832C1067.64 644.074 1067.99 644.196 1068.44 644.196C1068.81 644.196 1069.12 644.105 1069.36 643.923C1069.61 643.741 1069.73 643.494 1069.73 643.182C1069.73 642.913 1069.63 642.705 1069.44 642.558C1069.25 642.402 1069.01 642.298 1068.71 642.246L1067.86 642.116C1067.3 642.029 1066.83 641.834 1066.44 641.531C1066.05 641.219 1065.85 640.768 1065.85 640.179C1065.85 639.537 1066.08 639.039 1066.54 638.684C1067 638.328 1067.6 638.151 1068.32 638.151C1068.85 638.151 1069.31 638.25 1069.7 638.45C1070.09 638.64 1070.39 638.896 1070.59 639.217C1070.79 639.537 1070.89 639.884 1070.89 640.257V640.309H1069.56V640.283C1069.56 640.023 1069.46 639.771 1069.25 639.529C1069.04 639.286 1068.72 639.165 1068.29 639.165C1067.92 639.165 1067.63 639.256 1067.4 639.438C1067.18 639.62 1067.06 639.858 1067.06 640.153C1067.06 640.404 1067.16 640.608 1067.35 640.764C1067.54 640.92 1067.78 641.019 1068.06 641.063L1069 641.232C1069.57 641.336 1070.05 641.539 1070.43 641.843C1070.82 642.146 1071.02 642.588 1071.02 643.169C1071.02 643.585 1070.9 643.953 1070.68 644.274C1070.45 644.594 1070.14 644.841 1069.74 645.015C1069.34 645.188 1068.9 645.275 1068.4 645.275ZM1074.77 639.399V643.065C1074.77 643.385 1074.79 643.619 1074.81 643.767C1074.85 643.914 1074.93 644.031 1075.06 644.118C1075.2 644.204 1075.42 644.248 1075.74 644.248C1075.95 644.248 1076.16 644.222 1076.37 644.17V645.119C1076.31 645.145 1076.17 645.171 1075.94 645.197C1075.72 645.223 1075.49 645.236 1075.27 645.236C1074.72 645.236 1074.31 645.158 1074.05 645.002C1073.78 644.837 1073.6 644.629 1073.53 644.378C1073.46 644.118 1073.42 643.78 1073.42 643.364L1073.43 639.399H1072.2V638.333H1073.43V636.084H1074.77V638.333H1076.37V639.399H1074.77ZM1078.17 638.333H1079.51V639.425H1079.59C1079.7 639.121 1079.9 638.866 1080.19 638.658C1080.48 638.441 1080.86 638.333 1081.32 638.333C1081.44 638.333 1081.54 638.337 1081.63 638.346C1081.72 638.354 1081.8 638.376 1081.89 638.411L1081.84 639.685C1081.6 639.615 1081.36 639.581 1081.11 639.581C1080.6 639.581 1080.2 639.728 1079.93 640.023C1079.65 640.309 1079.51 640.785 1079.51 641.453V645.184H1078.17V638.333ZM1085.59 645.275C1085 645.275 1084.49 645.123 1084.07 644.82C1083.64 644.516 1083.32 644.096 1083.09 643.559C1082.87 643.021 1082.77 642.41 1082.77 641.726C1082.77 641.032 1082.88 640.417 1083.1 639.88C1083.33 639.342 1083.65 638.922 1084.08 638.619C1084.51 638.307 1085.03 638.151 1085.63 638.151C1086.22 638.151 1086.7 638.289 1087.06 638.567C1087.41 638.844 1087.68 639.165 1087.86 639.529H1087.95V638.333H1089.3V645.184H1087.95V643.858H1087.86C1087.67 644.239 1087.39 644.573 1087.03 644.859C1086.67 645.136 1086.18 645.275 1085.59 645.275ZM1086.04 644.157C1086.66 644.157 1087.12 643.923 1087.45 643.455C1087.77 642.978 1087.94 642.397 1087.94 641.713C1087.94 641.028 1087.77 640.452 1087.45 639.984C1087.12 639.516 1086.66 639.282 1086.04 639.282C1085.42 639.282 1084.94 639.516 1084.62 639.984C1084.3 640.452 1084.14 641.024 1084.14 641.7C1084.14 642.393 1084.3 642.978 1084.61 643.455C1084.93 643.923 1085.41 644.157 1086.04 644.157ZM1093.31 645.236C1092.76 645.236 1092.34 645.149 1092.08 644.976C1091.81 644.802 1091.64 644.581 1091.57 644.313C1091.5 644.035 1091.46 643.68 1091.46 643.247L1091.48 635.434H1092.82V643.013C1092.82 643.333 1092.83 643.572 1092.86 643.728C1092.89 643.884 1092.98 644.009 1093.12 644.105C1093.25 644.2 1093.47 644.248 1093.78 644.248C1093.94 644.248 1094.09 644.235 1094.22 644.209V645.171C1093.86 645.214 1093.55 645.236 1093.31 645.236ZM1096 638.333H1097.34V645.184H1096V638.333ZM1096.67 637.085C1096.43 637.085 1096.24 637.007 1096.08 636.851C1095.93 636.695 1095.85 636.5 1095.85 636.266C1095.85 636.032 1095.93 635.837 1096.08 635.681C1096.24 635.525 1096.43 635.447 1096.67 635.447C1096.9 635.447 1097.1 635.529 1097.25 635.694C1097.41 635.85 1097.49 636.04 1097.49 636.266C1097.49 636.491 1097.41 636.686 1097.25 636.851C1097.1 637.007 1096.9 637.085 1096.67 637.085ZM1102.01 645.275C1101.42 645.275 1100.91 645.123 1100.49 644.82C1100.06 644.516 1099.74 644.096 1099.51 643.559C1099.29 643.021 1099.19 642.41 1099.19 641.726C1099.19 641.032 1099.3 640.417 1099.52 639.88C1099.75 639.342 1100.07 638.922 1100.5 638.619C1100.93 638.307 1101.45 638.151 1102.05 638.151C1102.64 638.151 1103.12 638.289 1103.48 638.567C1103.83 638.844 1104.1 639.165 1104.28 639.529H1104.37V638.333H1105.72V645.184H1104.37V643.858H1104.28C1104.09 644.239 1103.81 644.573 1103.45 644.859C1103.09 645.136 1102.6 645.275 1102.01 645.275ZM1102.46 644.157C1103.08 644.157 1103.55 643.923 1103.87 643.455C1104.2 642.978 1104.36 642.397 1104.36 641.713C1104.36 641.028 1104.2 640.452 1103.87 639.984C1103.55 639.516 1103.08 639.282 1102.46 639.282C1101.84 639.282 1101.37 639.516 1101.04 639.984C1100.72 640.452 1100.56 641.024 1100.56 641.7C1100.56 642.393 1100.72 642.978 1101.03 643.455C1101.35 643.923 1101.83 644.157 1102.46 644.157Z" fill="white"/>
<path d="M557.262 6.27959V9.00959H561.071V10.0886H557.262V12.9876H561.643V14.1836H555.897V5.08359H561.643V6.27959H557.262ZM563.546 7.33259H564.898V8.50259H565.002C565.166 8.12126 565.435 7.80059 565.808 7.54059C566.18 7.28059 566.64 7.15059 567.186 7.15059C567.775 7.15059 568.26 7.29359 568.642 7.57959C569.023 7.85693 569.3 8.21659 569.474 8.65859C569.647 9.09193 569.734 9.55559 569.734 10.0496V14.1836H568.395V10.2446C568.395 9.62059 568.234 9.14393 567.914 8.81459C567.602 8.48526 567.186 8.32059 566.666 8.32059C566.12 8.32059 565.686 8.49826 565.366 8.85359C565.054 9.20893 564.898 9.67259 564.898 10.2446V14.1836H563.546V7.33259ZM574.886 16.9786C574.609 16.9786 574.396 16.9613 574.249 16.9266C574.102 16.8919 573.933 16.8399 573.742 16.7706V15.6656C573.855 15.7003 574.002 15.7306 574.184 15.7566C574.375 15.7913 574.561 15.8086 574.743 15.8086C575.402 15.8086 575.883 15.6223 576.186 15.2496C576.498 14.8856 576.654 14.4089 576.654 13.8196V12.6886H576.55C576.385 13.0613 576.108 13.3863 575.718 13.6636C575.337 13.9409 574.86 14.0796 574.288 14.0796C573.725 14.0796 573.231 13.9366 572.806 13.6506C572.381 13.3559 572.052 12.9486 571.818 12.4286C571.593 11.8999 571.48 11.2933 571.48 10.6086C571.48 9.92393 571.593 9.32159 571.818 8.80159C572.052 8.27293 572.381 7.86559 572.806 7.57959C573.231 7.28493 573.729 7.13759 574.301 7.13759C574.89 7.13759 575.376 7.28926 575.757 7.59259C576.138 7.88726 576.407 8.22093 576.563 8.59359H576.654V7.33259H578.019V13.8196C578.019 14.2876 577.924 14.7599 577.733 15.2366C577.551 15.7133 577.226 16.1206 576.758 16.4586C576.29 16.8053 575.666 16.9786 574.886 16.9786ZM574.756 12.9616C575.363 12.9616 575.826 12.7276 576.147 12.2596C576.476 11.7916 576.641 11.2326 576.641 10.5826C576.641 9.95859 576.481 9.41693 576.16 8.95759C575.839 8.49826 575.371 8.26859 574.756 8.26859C574.141 8.26859 573.673 8.49826 573.352 8.95759C573.031 9.40826 572.871 9.94993 572.871 10.5826C572.871 11.2326 573.031 11.7916 573.352 12.2596C573.681 12.7276 574.149 12.9616 574.756 12.9616ZM582.061 14.2356C581.507 14.2356 581.095 14.1489 580.826 13.9756C580.558 13.8023 580.389 13.5813 580.319 13.3126C580.25 13.0353 580.215 12.6799 580.215 12.2466L580.228 4.43359H581.567V12.0126C581.567 12.3333 581.58 12.5716 581.606 12.7276C581.641 12.8836 581.728 13.0093 581.866 13.1046C582.005 13.1999 582.226 13.2476 582.529 13.2476C582.694 13.2476 582.841 13.2346 582.971 13.2086V14.1706C582.607 14.2139 582.304 14.2356 582.061 14.2356ZM587.108 14.2746C586.519 14.2746 586.012 14.1229 585.587 13.8196C585.163 13.5163 584.838 13.0959 584.612 12.5586C584.396 12.0213 584.287 11.4103 584.287 10.7256C584.287 10.0323 584.4 9.41693 584.625 8.87959C584.851 8.34226 585.176 7.92193 585.6 7.61859C586.034 7.30659 586.549 7.15059 587.147 7.15059C587.745 7.15059 588.222 7.28926 588.577 7.56659C588.933 7.84393 589.201 8.16459 589.383 8.52859H589.474V7.33259H590.826V14.1836H589.474V12.8576H589.383C589.193 13.2389 588.915 13.5726 588.551 13.8586C588.187 14.1359 587.706 14.2746 587.108 14.2746ZM587.563 13.1566C588.179 13.1566 588.647 12.9226 588.967 12.4546C589.297 11.9779 589.461 11.3973 589.461 10.7126C589.461 10.0279 589.297 9.45159 588.967 8.98359C588.647 8.51559 588.179 8.28159 587.563 8.28159C586.939 8.28159 586.467 8.51559 586.146 8.98359C585.826 9.45159 585.665 10.0236 585.665 10.6996C585.665 11.3929 585.821 11.9779 586.133 12.4546C586.454 12.9226 586.931 13.1566 587.563 13.1566ZM592.934 7.33259H594.286V8.50259H594.39C594.555 8.12126 594.824 7.80059 595.196 7.54059C595.569 7.28059 596.028 7.15059 596.574 7.15059C597.164 7.15059 597.649 7.29359 598.03 7.57959C598.412 7.85693 598.689 8.21659 598.862 8.65859C599.036 9.09193 599.122 9.55559 599.122 10.0496V14.1836H597.783V10.2446C597.783 9.62059 597.623 9.14393 597.302 8.81459C596.99 8.48526 596.574 8.32059 596.054 8.32059C595.508 8.32059 595.075 8.49826 594.754 8.85359C594.442 9.20893 594.286 9.67259 594.286 10.2446V14.1836H592.934V7.33259ZM603.664 14.2746C603.074 14.2746 602.567 14.1229 602.143 13.8196C601.718 13.5163 601.393 13.0959 601.168 12.5586C600.951 12.0213 600.843 11.4103 600.843 10.7256C600.843 10.0323 600.951 9.41693 601.168 8.87959C601.393 8.34226 601.718 7.92193 602.143 7.61859C602.576 7.30659 603.092 7.15059 603.69 7.15059C604.288 7.15059 604.764 7.28926 605.12 7.56659C605.475 7.84393 605.744 8.16459 605.926 8.52859H606.017V4.43359H607.382V14.1836H606.017V12.8576H605.926C605.735 13.2389 605.458 13.5726 605.094 13.8586C604.73 14.1359 604.253 14.2746 603.664 14.2746ZM604.106 13.1566C604.721 13.1566 605.189 12.9226 605.51 12.4546C605.839 11.9866 606.004 11.4103 606.004 10.7256C606.004 10.0409 605.839 9.46459 605.51 8.99659C605.189 8.52859 604.721 8.29459 604.106 8.29459C603.473 8.29459 603.001 8.52859 602.689 8.99659C602.377 9.45593 602.221 10.0279 602.221 10.7126C602.221 11.4059 602.377 11.9866 602.689 12.4546C603.009 12.9226 603.482 13.1566 604.106 13.1566Z" fill="white"/>
<path d="M4.459 228.301C3.30633 228.301 2.40933 227.95 1.768 227.248C1.12667 226.546 0.806 225.523 0.806 224.18V219.084H2.132V224.128C2.132 224.864 2.288 225.532 2.6 226.13C2.92067 226.719 3.54033 227.014 4.459 227.014C5.35167 227.014 5.954 226.719 6.266 226.13C6.58667 225.54 6.747 224.873 6.747 224.128V219.084H8.086V224.18C8.086 225.523 7.761 226.546 7.111 227.248C6.46967 227.95 5.58567 228.301 4.459 228.301ZM10.0945 221.333H11.4465V222.503H11.5505C11.7152 222.121 11.9838 221.801 12.3565 221.541C12.7292 221.281 13.1885 221.151 13.7345 221.151C14.3238 221.151 14.8092 221.294 15.1905 221.58C15.5718 221.857 15.8492 222.217 16.0225 222.659C16.1958 223.092 16.2825 223.556 16.2825 224.05V228.184H14.9435V224.245C14.9435 223.621 14.7832 223.144 14.4625 222.815C14.1505 222.485 13.7345 222.321 13.2145 222.321C12.6685 222.321 12.2352 222.498 11.9145 222.854C11.6025 223.209 11.4465 223.673 11.4465 224.245V228.184H10.0945V221.333ZM18.3937 221.333H19.7327V228.184H18.3937V221.333ZM19.0567 220.085C18.8227 220.085 18.6277 220.007 18.4717 219.851C18.3157 219.695 18.2377 219.5 18.2377 219.266C18.2377 219.032 18.3157 218.837 18.4717 218.681C18.6277 218.525 18.8227 218.447 19.0567 218.447C19.2907 218.447 19.4857 218.529 19.6417 218.694C19.7977 218.85 19.8757 219.04 19.8757 219.266C19.8757 219.491 19.7977 219.686 19.6417 219.851C19.4857 220.007 19.2907 220.085 19.0567 220.085ZM23.9933 222.399V226.065C23.9933 226.385 24.0063 226.619 24.0323 226.767C24.067 226.914 24.1493 227.031 24.2793 227.118C24.418 227.204 24.6433 227.248 24.9553 227.248C25.172 227.248 25.3843 227.222 25.5923 227.17V228.119C25.5317 228.145 25.3887 228.171 25.1633 228.197C24.938 228.223 24.7127 228.236 24.4873 228.236C23.9413 228.236 23.534 228.158 23.2653 228.002C22.9967 227.837 22.8233 227.629 22.7453 227.378C22.676 227.118 22.6413 226.78 22.6413 226.364L22.6543 222.399H21.4193V221.333H22.6543V219.084H23.9933V221.333H25.5923V222.399H23.9933ZM30.3548 228.275C29.6441 228.275 29.0461 228.106 28.5608 227.768C28.0755 227.43 27.7158 226.992 27.4818 226.455C27.2478 225.909 27.1308 225.328 27.1308 224.713C27.1308 224.097 27.2478 223.521 27.4818 222.984C27.7158 222.438 28.0755 221.996 28.5608 221.658C29.0548 221.32 29.6571 221.151 30.3678 221.151C31.3038 221.151 32.0491 221.458 32.6038 222.074C33.1585 222.68 33.4358 223.564 33.4358 224.726V225.103H28.4438V225.194C28.4438 225.54 28.5218 225.865 28.6778 226.169C28.8338 226.472 29.0548 226.719 29.3408 226.91C29.6268 227.092 29.9561 227.183 30.3288 227.183C30.7361 227.183 31.0871 227.083 31.3818 226.884C31.6765 226.676 31.8888 226.398 32.0188 226.052H33.3448C33.1715 226.693 32.8291 227.226 32.3178 227.651C31.8065 228.067 31.1521 228.275 30.3548 228.275ZM32.1228 224.18C32.0881 223.478 31.9105 222.971 31.5898 222.659C31.2778 222.338 30.8618 222.178 30.3418 222.178C29.7871 222.178 29.3408 222.36 29.0028 222.724C28.6735 223.088 28.5001 223.573 28.4828 224.18H32.1228ZM37.7395 228.275C37.1502 228.275 36.6432 228.123 36.2185 227.82C35.7938 227.516 35.4688 227.096 35.2435 226.559C35.0268 226.021 34.9185 225.41 34.9185 224.726C34.9185 224.032 35.0268 223.417 35.2435 222.88C35.4688 222.342 35.7938 221.922 36.2185 221.619C36.6518 221.307 37.1675 221.151 37.7655 221.151C38.3635 221.151 38.8402 221.289 39.1955 221.567C39.5508 221.844 39.8195 222.165 40.0015 222.529H40.0925V218.434H41.4575V228.184H40.0925V226.858H40.0015C39.8108 227.239 39.5335 227.573 39.1695 227.859C38.8055 228.136 38.3288 228.275 37.7395 228.275ZM38.1815 227.157C38.7968 227.157 39.2648 226.923 39.5855 226.455C39.9148 225.987 40.0795 225.41 40.0795 224.726C40.0795 224.041 39.9148 223.465 39.5855 222.997C39.2648 222.529 38.7968 222.295 38.1815 222.295C37.5488 222.295 37.0765 222.529 36.7645 222.997C36.4525 223.456 36.2965 224.028 36.2965 224.713C36.2965 225.406 36.4525 225.987 36.7645 226.455C37.0852 226.923 37.5575 227.157 38.1815 227.157ZM49.162 228.275C48.5987 228.275 48.1134 228.166 47.706 227.95C47.2987 227.733 46.9867 227.451 46.77 227.105C46.5534 226.749 46.445 226.381 46.445 226V225.935H47.771V225.987C47.771 226.299 47.8967 226.58 48.148 226.832C48.3994 227.074 48.7504 227.196 49.201 227.196C49.5737 227.196 49.8814 227.105 50.124 226.923C50.3667 226.741 50.488 226.494 50.488 226.182C50.488 225.913 50.3927 225.705 50.202 225.558C50.0114 225.402 49.7687 225.298 49.474 225.246L48.616 225.116C48.0614 225.029 47.589 224.834 47.199 224.531C46.809 224.219 46.614 223.768 46.614 223.179C46.614 222.537 46.8437 222.039 47.303 221.684C47.7624 221.328 48.356 221.151 49.084 221.151C49.6127 221.151 50.072 221.25 50.462 221.45C50.852 221.64 51.1467 221.896 51.346 222.217C51.5454 222.537 51.645 222.884 51.645 223.257V223.309H50.319V223.283C50.319 223.023 50.215 222.771 50.007 222.529C49.799 222.286 49.4784 222.165 49.045 222.165C48.681 222.165 48.3864 222.256 48.161 222.438C47.9357 222.62 47.823 222.858 47.823 223.153C47.823 223.404 47.9184 223.608 48.109 223.764C48.2997 223.92 48.538 224.019 48.824 224.063L49.76 224.232C50.332 224.336 50.8087 224.539 51.19 224.843C51.58 225.146 51.775 225.588 51.775 226.169C51.775 226.585 51.6624 226.953 51.437 227.274C51.2117 227.594 50.8997 227.841 50.501 228.015C50.1024 228.188 49.656 228.275 49.162 228.275ZM55.5336 222.399V226.065C55.5336 226.385 55.5466 226.619 55.5726 226.767C55.6072 226.914 55.6896 227.031 55.8196 227.118C55.9582 227.204 56.1836 227.248 56.4956 227.248C56.7122 227.248 56.9246 227.222 57.1326 227.17V228.119C57.0719 228.145 56.9289 228.171 56.7036 228.197C56.4782 228.223 56.2529 228.236 56.0276 228.236C55.4816 228.236 55.0742 228.158 54.8056 228.002C54.5369 227.837 54.3636 227.629 54.2856 227.378C54.2162 227.118 54.1816 226.78 54.1816 226.364L54.1946 222.399H52.9596V221.333H54.1946V219.084H55.5336V221.333H57.1326V222.399H55.5336ZM61.427 228.275C60.8377 228.275 60.3307 228.123 59.906 227.82C59.4814 227.516 59.1564 227.096 58.931 226.559C58.7144 226.021 58.606 225.41 58.606 224.726C58.606 224.032 58.7187 223.417 58.944 222.88C59.1694 222.342 59.4944 221.922 59.919 221.619C60.3524 221.307 60.868 221.151 61.466 221.151C62.064 221.151 62.5407 221.289 62.896 221.567C63.2514 221.844 63.52 222.165 63.702 222.529H63.793V221.333H65.145V228.184H63.793V226.858H63.702C63.5114 227.239 63.234 227.573 62.87 227.859C62.506 228.136 62.025 228.275 61.427 228.275ZM61.882 227.157C62.4974 227.157 62.9654 226.923 63.286 226.455C63.6154 225.978 63.78 225.397 63.78 224.713C63.78 224.028 63.6154 223.452 63.286 222.984C62.9654 222.516 62.4974 222.282 61.882 222.282C61.258 222.282 60.7857 222.516 60.465 222.984C60.1444 223.452 59.984 224.024 59.984 224.7C59.984 225.393 60.14 225.978 60.452 226.455C60.7727 226.923 61.2494 227.157 61.882 227.157ZM69.3836 222.399V226.065C69.3836 226.385 69.3966 226.619 69.4226 226.767C69.4573 226.914 69.5396 227.031 69.6696 227.118C69.8083 227.204 70.0336 227.248 70.3456 227.248C70.5623 227.248 70.7746 227.222 70.9826 227.17V228.119C70.922 228.145 70.779 228.171 70.5536 228.197C70.3283 228.223 70.103 228.236 69.8776 228.236C69.3316 228.236 68.9243 228.158 68.6556 228.002C68.387 227.837 68.2136 227.629 68.1356 227.378C68.0663 227.118 68.0316 226.78 68.0316 226.364L68.0446 222.399H66.8096V221.333H68.0446V219.084H69.3836V221.333H70.9826V222.399H69.3836ZM75.7451 228.275C75.0344 228.275 74.4364 228.106 73.9511 227.768C73.4658 227.43 73.1061 226.992 72.8721 226.455C72.6381 225.909 72.5211 225.328 72.5211 224.713C72.5211 224.097 72.6381 223.521 72.8721 222.984C73.1061 222.438 73.4658 221.996 73.9511 221.658C74.4451 221.32 75.0474 221.151 75.7581 221.151C76.6941 221.151 77.4394 221.458 77.9941 222.074C78.5488 222.68 78.8261 223.564 78.8261 224.726V225.103H73.8341V225.194C73.8341 225.54 73.9121 225.865 74.0681 226.169C74.2241 226.472 74.4451 226.719 74.7311 226.91C75.0171 227.092 75.3464 227.183 75.7191 227.183C76.1264 227.183 76.4774 227.083 76.7721 226.884C77.0668 226.676 77.2791 226.398 77.4091 226.052H78.7351C78.5618 226.693 78.2194 227.226 77.7081 227.651C77.1968 228.067 76.5424 228.275 75.7451 228.275ZM77.5131 224.18C77.4784 223.478 77.3008 222.971 76.9801 222.659C76.6681 222.338 76.2521 222.178 75.7321 222.178C75.1774 222.178 74.7311 222.36 74.3931 222.724C74.0638 223.088 73.8904 223.573 73.8731 224.18H77.5131ZM83.0128 228.275C82.4495 228.275 81.9642 228.166 81.5568 227.95C81.1495 227.733 80.8375 227.451 80.6208 227.105C80.4042 226.749 80.2958 226.381 80.2958 226V225.935H81.6218V225.987C81.6218 226.299 81.7475 226.58 81.9988 226.832C82.2502 227.074 82.6012 227.196 83.0518 227.196C83.4245 227.196 83.7322 227.105 83.9748 226.923C84.2175 226.741 84.3388 226.494 84.3388 226.182C84.3388 225.913 84.2435 225.705 84.0528 225.558C83.8622 225.402 83.6195 225.298 83.3248 225.246L82.4668 225.116C81.9122 225.029 81.4398 224.834 81.0498 224.531C80.6598 224.219 80.4648 223.768 80.4648 223.179C80.4648 222.537 80.6945 222.039 81.1538 221.684C81.6132 221.328 82.2068 221.151 82.9348 221.151C83.4635 221.151 83.9228 221.25 84.3128 221.45C84.7028 221.64 84.9975 221.896 85.1968 222.217C85.3962 222.537 85.4958 222.884 85.4958 223.257V223.309H84.1698V223.283C84.1698 223.023 84.0658 222.771 83.8578 222.529C83.6498 222.286 83.3292 222.165 82.8958 222.165C82.5318 222.165 82.2372 222.256 82.0118 222.438C81.7865 222.62 81.6738 222.858 81.6738 223.153C81.6738 223.404 81.7692 223.608 81.9598 223.764C82.1505 223.92 82.3888 224.019 82.6748 224.063L83.6108 224.232C84.1828 224.336 84.6595 224.539 85.0408 224.843C85.4308 225.146 85.6258 225.588 85.6258 226.169C85.6258 226.585 85.5132 226.953 85.2878 227.274C85.0625 227.594 84.7505 227.841 84.3518 228.015C83.9532 228.188 83.5068 228.275 83.0128 228.275Z" fill="white"/>
<path d="M855.991 571.288C855.28 571.288 854.669 571.145 854.158 570.859C853.655 570.564 853.274 570.187 853.014 569.728C852.763 569.268 852.637 568.787 852.637 568.285V568.22H854.119V568.285C854.119 568.562 854.184 568.839 854.314 569.117C854.444 569.385 854.652 569.615 854.938 569.806C855.224 569.988 855.584 570.079 856.017 570.079C856.546 570.079 856.975 569.944 857.304 569.676C857.642 569.407 857.811 569.043 857.811 568.584C857.811 568.202 857.681 567.899 857.421 567.674C857.17 567.448 856.849 567.297 856.459 567.219L855.211 566.972C854.665 566.859 854.136 566.629 853.625 566.283C853.122 565.927 852.871 565.338 852.871 564.515C852.871 563.986 852.997 563.522 853.248 563.124C853.508 562.725 853.868 562.422 854.327 562.214C854.786 561.997 855.311 561.889 855.9 561.889C856.576 561.889 857.157 562.023 857.642 562.292C858.127 562.56 858.491 562.911 858.734 563.345C858.985 563.769 859.111 564.216 859.111 564.684V564.736H857.629V564.697C857.629 564.463 857.573 564.22 857.46 563.969C857.347 563.717 857.157 563.505 856.888 563.332C856.628 563.15 856.286 563.059 855.861 563.059C855.358 563.059 854.96 563.197 854.665 563.475C854.379 563.743 854.236 564.081 854.236 564.489C854.236 564.844 854.357 565.134 854.6 565.36C854.851 565.585 855.176 565.737 855.575 565.815L856.732 566.049C857.399 566.187 857.98 566.443 858.474 566.816C858.977 567.188 859.228 567.765 859.228 568.545C859.228 569.082 859.089 569.559 858.812 569.975C858.543 570.391 858.162 570.716 857.668 570.95C857.183 571.175 856.624 571.288 855.991 571.288ZM861.095 564.333H862.434V571.184H861.095V564.333ZM861.758 563.085C861.524 563.085 861.329 563.007 861.173 562.851C861.017 562.695 860.939 562.5 860.939 562.266C860.939 562.032 861.017 561.837 861.173 561.681C861.329 561.525 861.524 561.447 861.758 561.447C861.992 561.447 862.187 561.529 862.343 561.694C862.499 561.85 862.577 562.04 862.577 562.266C862.577 562.491 862.499 562.686 862.343 562.851C862.187 563.007 861.992 563.085 861.758 563.085ZM864.665 564.333H866.017V565.503H866.121C866.286 565.121 866.554 564.801 866.927 564.541C867.3 564.281 867.759 564.151 868.305 564.151C868.894 564.151 869.38 564.294 869.761 564.58C870.142 564.857 870.42 565.217 870.593 565.659C870.766 566.092 870.853 566.556 870.853 567.05V571.184H869.514V567.245C869.514 566.621 869.354 566.144 869.033 565.815C868.721 565.485 868.305 565.321 867.785 565.321C867.239 565.321 866.806 565.498 866.485 565.854C866.173 566.209 866.017 566.673 866.017 567.245V571.184H864.665V564.333ZM876.005 573.979C875.728 573.979 875.516 573.961 875.368 573.927C875.221 573.892 875.052 573.84 874.861 573.771V572.666C874.974 572.7 875.121 572.731 875.303 572.757C875.494 572.791 875.68 572.809 875.862 572.809C876.521 572.809 877.002 572.622 877.305 572.25C877.617 571.886 877.773 571.409 877.773 570.82V569.689H877.669C877.505 570.061 877.227 570.386 876.837 570.664C876.456 570.941 875.979 571.08 875.407 571.08C874.844 571.08 874.35 570.937 873.925 570.651C873.501 570.356 873.171 569.949 872.937 569.429C872.712 568.9 872.599 568.293 872.599 567.609C872.599 566.924 872.712 566.322 872.937 565.802C873.171 565.273 873.501 564.866 873.925 564.58C874.35 564.285 874.848 564.138 875.42 564.138C876.01 564.138 876.495 564.289 876.876 564.593C877.258 564.887 877.526 565.221 877.682 565.594H877.773V564.333H879.138V570.82C879.138 571.288 879.043 571.76 878.852 572.237C878.67 572.713 878.345 573.121 877.877 573.459C877.409 573.805 876.785 573.979 876.005 573.979ZM875.875 569.962C876.482 569.962 876.946 569.728 877.266 569.26C877.596 568.792 877.76 568.233 877.76 567.583C877.76 566.959 877.6 566.417 877.279 565.958C876.959 565.498 876.491 565.269 875.875 565.269C875.26 565.269 874.792 565.498 874.471 565.958C874.151 566.408 873.99 566.95 873.99 567.583C873.99 568.233 874.151 568.792 874.471 569.26C874.801 569.728 875.269 569.962 875.875 569.962ZM883.791 571.275C883.202 571.275 882.695 571.123 882.27 570.82C881.845 570.516 881.52 570.096 881.295 569.559C881.078 569.021 880.97 568.41 880.97 567.726C880.97 567.032 881.083 566.417 881.308 565.88C881.533 565.342 881.858 564.922 882.283 564.619C882.716 564.307 883.232 564.151 883.83 564.151C884.428 564.151 884.905 564.289 885.26 564.567C885.615 564.844 885.884 565.165 886.066 565.529H886.157V564.333H887.509V571.184H886.157V569.858H886.066C885.875 570.239 885.598 570.573 885.234 570.859C884.87 571.136 884.389 571.275 883.791 571.275ZM884.246 570.157C884.861 570.157 885.329 569.923 885.65 569.455C885.979 568.978 886.144 568.397 886.144 567.713C886.144 567.028 885.979 566.452 885.65 565.984C885.329 565.516 884.861 565.282 884.246 565.282C883.622 565.282 883.15 565.516 882.829 565.984C882.508 566.452 882.348 567.024 882.348 567.7C882.348 568.393 882.504 568.978 882.816 569.455C883.137 569.923 883.613 570.157 884.246 570.157ZM893.322 571.275C892.733 571.275 892.256 571.136 891.892 570.859C891.528 570.573 891.251 570.239 891.06 569.858H890.969V573.849H889.604V564.333H890.969V565.529H891.06C891.242 565.165 891.511 564.844 891.866 564.567C892.221 564.289 892.698 564.151 893.296 564.151C893.894 564.151 894.405 564.307 894.83 564.619C895.263 564.922 895.588 565.342 895.805 565.88C896.03 566.417 896.143 567.032 896.143 567.726C896.143 568.41 896.03 569.021 895.805 569.559C895.588 570.096 895.268 570.516 894.843 570.82C894.418 571.123 893.911 571.275 893.322 571.275ZM892.88 570.157C893.504 570.157 893.972 569.923 894.284 569.455C894.605 568.987 894.765 568.406 894.765 567.713C894.765 567.028 894.609 566.456 894.297 565.997C893.985 565.529 893.513 565.295 892.88 565.295C892.265 565.295 891.792 565.529 891.463 565.997C891.142 566.465 890.982 567.041 890.982 567.726C890.982 568.41 891.142 568.987 891.463 569.455C891.792 569.923 892.265 570.157 892.88 570.157ZM900.902 571.275C900.2 571.275 899.606 571.11 899.121 570.781C898.636 570.451 898.272 570.018 898.029 569.481C897.795 568.935 897.678 568.35 897.678 567.726C897.678 567.093 897.795 566.508 898.029 565.971C898.272 565.425 898.636 564.987 899.121 564.658C899.606 564.32 900.2 564.151 900.902 564.151C901.604 564.151 902.198 564.32 902.683 564.658C903.168 564.987 903.532 565.425 903.775 565.971C904.018 566.508 904.139 567.089 904.139 567.713C904.139 568.337 904.018 568.922 903.775 569.468C903.532 570.005 903.168 570.443 902.683 570.781C902.198 571.11 901.604 571.275 900.902 571.275ZM900.902 570.157C901.5 570.157 901.964 569.923 902.293 569.455C902.631 568.987 902.8 568.402 902.8 567.7C902.8 566.998 902.631 566.417 902.293 565.958C901.964 565.498 901.5 565.269 900.902 565.269C900.313 565.269 899.849 565.503 899.511 565.971C899.173 566.43 899.004 567.006 899.004 567.7C899.004 568.402 899.169 568.987 899.498 569.455C899.836 569.923 900.304 570.157 900.902 570.157ZM905.891 564.333H907.23V565.425H907.308C907.421 565.121 907.62 564.866 907.906 564.658C908.201 564.441 908.578 564.333 909.037 564.333C909.159 564.333 909.263 564.337 909.349 564.346C909.436 564.354 909.523 564.376 909.609 564.411L909.558 565.685C909.323 565.615 909.081 565.581 908.829 565.581C908.318 565.581 907.924 565.728 907.646 566.023C907.369 566.309 907.23 566.785 907.23 567.453V571.184H905.891V564.333ZM913.775 571.275C913.064 571.275 912.466 571.106 911.981 570.768C911.495 570.43 911.136 569.992 910.902 569.455C910.668 568.909 910.551 568.328 910.551 567.713C910.551 567.097 910.668 566.521 910.902 565.984C911.136 565.438 911.495 564.996 911.981 564.658C912.475 564.32 913.077 564.151 913.788 564.151C914.724 564.151 915.469 564.458 916.024 565.074C916.578 565.68 916.856 566.564 916.856 567.726V568.103H911.864V568.194C911.864 568.54 911.942 568.865 912.098 569.169C912.254 569.472 912.475 569.719 912.761 569.91C913.047 570.092 913.376 570.183 913.749 570.183C914.156 570.183 914.507 570.083 914.802 569.884C915.096 569.676 915.309 569.398 915.439 569.052H916.765C916.591 569.693 916.249 570.226 915.738 570.651C915.226 571.067 914.572 571.275 913.775 571.275ZM915.543 567.18C915.508 566.478 915.33 565.971 915.01 565.659C914.698 565.338 914.282 565.178 913.762 565.178C913.207 565.178 912.761 565.36 912.423 565.724C912.093 566.088 911.92 566.573 911.903 567.18H915.543Z" fill="white"/>
<path d="M803 374.184L818 374.184L942 374.184" stroke="#DC00D3" stroke-width="2" stroke-linecap="round"/>
<path d="M934 382.184L942 374.184L934 366.184" stroke="#DC00D3" stroke-width="2" stroke-linecap="round" stroke-linejoin="round"/>
<path d="M819.169 356.084H820.534L823.134 363.793H823.212L825.812 356.084H827.164L824.083 365.184H822.263L819.169 356.084ZM828.615 358.333H829.954V365.184H828.615V358.333ZM829.278 357.085C829.044 357.085 828.849 357.007 828.693 356.851C828.537 356.695 828.459 356.5 828.459 356.266C828.459 356.032 828.537 355.837 828.693 355.681C828.849 355.525 829.044 355.447 829.278 355.447C829.512 355.447 829.707 355.529 829.863 355.694C830.019 355.85 830.097 356.04 830.097 356.266C830.097 356.491 830.019 356.686 829.863 356.851C829.707 357.007 829.512 357.085 829.278 357.085ZM835.086 365.275C834.375 365.275 833.777 365.106 833.292 364.768C832.806 364.43 832.447 363.992 832.213 363.455C831.979 362.909 831.862 362.328 831.862 361.713C831.862 361.097 831.979 360.521 832.213 359.984C832.447 359.438 832.806 358.996 833.292 358.658C833.786 358.32 834.388 358.151 835.099 358.151C836.035 358.151 836.78 358.458 837.335 359.074C837.889 359.68 838.167 360.564 838.167 361.726V362.103H833.175V362.194C833.175 362.54 833.253 362.865 833.409 363.169C833.565 363.472 833.786 363.719 834.072 363.91C834.358 364.092 834.687 364.183 835.06 364.183C835.467 364.183 835.818 364.083 836.113 363.884C836.407 363.676 836.62 363.398 836.75 363.052H838.076C837.902 363.693 837.56 364.226 837.049 364.651C836.537 365.067 835.883 365.275 835.086 365.275ZM836.854 361.18C836.819 360.478 836.641 359.971 836.321 359.659C836.009 359.338 835.593 359.178 835.073 359.178C834.518 359.178 834.072 359.36 833.734 359.724C833.404 360.088 833.231 360.573 833.214 361.18H836.854ZM842.028 359.399V363.065C842.028 363.385 842.041 363.619 842.067 363.767C842.102 363.914 842.184 364.031 842.314 364.118C842.453 364.204 842.678 364.248 842.99 364.248C843.207 364.248 843.419 364.222 843.627 364.17V365.119C843.567 365.145 843.424 365.171 843.198 365.197C842.973 365.223 842.748 365.236 842.522 365.236C841.976 365.236 841.569 365.158 841.3 365.002C841.032 364.837 840.858 364.629 840.78 364.378C840.711 364.118 840.676 363.78 840.676 363.364L840.689 359.399H839.454V358.333H840.689V356.084H842.028V358.333H843.627V359.399H842.028ZM845.515 358.333H846.867V359.503H846.971C847.136 359.121 847.404 358.801 847.777 358.541C848.15 358.281 848.609 358.151 849.155 358.151C849.744 358.151 850.23 358.294 850.611 358.58C850.992 358.857 851.27 359.217 851.443 359.659C851.616 360.092 851.703 360.556 851.703 361.05V365.184H850.364V361.245C850.364 360.621 850.204 360.144 849.883 359.815C849.571 359.485 849.155 359.321 848.635 359.321C848.089 359.321 847.656 359.498 847.335 359.854C847.023 360.209 846.867 360.673 846.867 361.245V365.184H845.515V358.333ZM856.205 365.275C855.616 365.275 855.109 365.123 854.684 364.82C854.26 364.516 853.935 364.096 853.709 363.559C853.493 363.021 853.384 362.41 853.384 361.726C853.384 361.032 853.497 360.417 853.722 359.88C853.948 359.342 854.273 358.922 854.697 358.619C855.131 358.307 855.646 358.151 856.244 358.151C856.842 358.151 857.319 358.289 857.674 358.567C858.03 358.844 858.298 359.165 858.48 359.529H858.571V358.333H859.923V365.184H858.571V363.858H858.48C858.29 364.239 858.012 364.573 857.648 364.859C857.284 365.136 856.803 365.275 856.205 365.275ZM856.66 364.157C857.276 364.157 857.744 363.923 858.064 363.455C858.394 362.978 858.558 362.397 858.558 361.713C858.558 361.028 858.394 360.452 858.064 359.984C857.744 359.516 857.276 359.282 856.66 359.282C856.036 359.282 855.564 359.516 855.243 359.984C854.923 360.452 854.762 361.024 854.762 361.7C854.762 362.393 854.918 362.978 855.23 363.455C855.551 363.923 856.028 364.157 856.66 364.157ZM862.031 358.333H863.37V359.542H863.474C863.5 359.438 863.587 359.277 863.734 359.061C863.882 358.844 864.107 358.64 864.41 358.45C864.714 358.25 865.095 358.151 865.554 358.151C866.048 358.151 866.456 358.263 866.776 358.489C867.106 358.714 867.348 358.957 867.504 359.217C867.66 359.477 867.738 359.641 867.738 359.711H867.842C867.886 359.589 867.981 359.412 868.128 359.178C868.284 358.935 868.531 358.705 868.869 358.489C869.216 358.263 869.645 358.151 870.156 358.151C870.72 358.151 871.183 358.298 871.547 358.593C871.92 358.879 872.189 359.243 872.353 359.685C872.518 360.118 872.6 360.569 872.6 361.037V365.184H871.261V361.167C871.261 360.577 871.105 360.131 870.793 359.828C870.49 359.516 870.113 359.36 869.662 359.36C869.194 359.36 868.796 359.52 868.466 359.841C868.146 360.153 867.985 360.595 867.985 361.167V365.184H866.646V361.167C866.646 360.577 866.49 360.131 866.178 359.828C865.875 359.516 865.498 359.36 865.047 359.36C864.579 359.36 864.181 359.52 863.851 359.841C863.531 360.153 863.37 360.595 863.37 361.167V365.184H862.031V358.333Z" fill="white"/>
<path d="M1111 654.184L1043 654.184C1036.37 654.184 1031 648.811 1031 642.184L1031 530.184" stroke="#DC00D3" stroke-width="2" stroke-linecap="round"/>
<path d="M1031 531.184L1031 546.184" stroke="#DC00D3" stroke-width="2" stroke-linecap="round"/>
<path d="M856 578.184L924 578.184C930.627 578.184 936 572.811 936 566.184L936 454.184" stroke="#DC00D3" stroke-width="2" stroke-linecap="round"/>
<path d="M928 462.184L936 454.184L944 462.184" stroke="#DC00D3" stroke-width="2" stroke-linecap="round" stroke-linejoin="round"/>
<path d="M637 122.184L637 30.1836C637 23.5562 631.627 18.1836 625 18.1836L557 18.1836L549 18.1836" stroke="#DC00D3" stroke-width="2" stroke-linecap="round"/>
<path d="M629 114.184L637 122.184L645 114.184" stroke="#DC00D3" stroke-width="2" stroke-linecap="round" stroke-linejoin="round"/>
<path d="M121 242.184L129 234.184L121 226.184" stroke="#DC00D3" stroke-width="2" stroke-linecap="round" stroke-linejoin="round"/>
</svg>
