<svg width="169" height="181" viewBox="0 0 169 181" fill="none" xmlns="http://www.w3.org/2000/svg">
<g clipPath="url(#clip0_597_104089)">
<path d="M76.3767 173.115C65.011 168.725 54.3873 162.097 44.8091 153.402C35.6356 145.083 27.6088 135.056 20.931 123.611C14.3376 112.302 9.2281 99.8665 5.73745 86.6448C2.17934 73.1669 0.375 59.1253 0.375 44.947C0.375 37.7041 0.864028 30.3758 1.80836 23.1842L4.23664 4.90612L21.6056 10.4237C27.9629 12.4394 34.5901 13.4643 41.3016 13.4643C52.7347 13.4643 64.1342 10.3895 74.2688 4.54739L81.8403 0.191406L89.4118 4.54739C89.5299 4.61572 89.6311 4.66696 89.7491 4.73529L89.7828 4.75238C89.9515 4.83779 90.1032 4.9232 90.255 5.00861C100.187 10.5262 111.283 13.4473 122.379 13.4473C129.091 13.4473 135.718 12.4223 142.075 10.4066L159.444 4.88903L161.872 23.1671C162.834 30.3587 163.306 37.687 163.306 44.9299C163.306 58.9886 161.535 72.9107 158.044 86.269C154.621 99.3882 149.596 111.739 143.121 122.979C136.561 134.373 128.669 144.366 119.63 152.702C110.204 161.397 99.7489 168.093 88.5687 172.603L88.2989 172.705C87.9785 172.842 87.6581 172.962 87.3208 173.098L81.8572 175.216L76.3767 173.115Z" fill="url(#paint0_linear_597_104089)"/>
<path d="M80.0176 163.43C69.8324 159.501 60.271 153.522 51.6203 145.682C43.2394 138.08 35.8702 128.873 29.7321 118.35C23.6108 107.861 18.8723 96.2967 15.6177 83.9804C12.2957 71.3566 10.6094 58.2203 10.6094 44.9474C10.6094 38.1657 11.0647 31.2986 11.9584 24.5682L12.7678 18.4698L18.5519 20.3147C25.9042 22.655 33.56 23.8337 41.3001 23.8337C54.5039 23.8337 67.6402 20.2806 79.3263 13.5672L81.8557 12.1152L84.3852 13.5672C84.5707 13.6697 84.7562 13.7722 84.9585 13.8747C85.0934 13.943 85.2283 14.0284 85.3801 14.0968C96.8132 20.4514 109.612 23.8166 122.411 23.8166C130.151 23.8166 137.807 22.6379 145.16 20.2976L150.944 18.4528L151.753 24.5511C152.647 31.2986 153.102 38.1486 153.102 44.9303C153.102 58.1007 151.449 71.1174 148.178 83.6217C144.991 95.8355 140.32 107.332 134.3 117.769C128.263 128.241 121.012 137.431 112.766 145.05C104.25 152.907 94.8403 158.937 84.8067 162.986L84.5201 163.106C84.2503 163.225 83.9636 163.328 83.6938 163.43L81.8726 164.13L80.0176 163.43Z" fill="url(#paint1_linear_597_104089)"/>
<path d="M146.66 25.2507C138.802 27.7447 130.674 29.0088 122.377 29.0088C108.617 29.0088 95.0762 25.4386 82.8842 18.657C82.5301 18.4691 82.176 18.2812 81.8387 18.0762C69.377 25.2336 55.4481 29.0088 41.3 29.0088C33.0034 29.0088 24.8754 27.7447 17.0172 25.2507C16.1572 31.7762 15.7188 38.3699 15.7188 44.9466C15.7188 97.2013 42.8008 143.511 81.8387 158.595C82.1929 158.458 82.5301 158.322 82.8842 158.168C121.366 142.674 147.959 96.723 147.959 44.9466C147.959 38.3699 147.52 31.7762 146.66 25.2507Z" fill="url(#paint2_linear_597_104089)"/>
<path d="M45.6711 87.4819L71.3367 115.736C72.399 116.915 74.254 116.846 75.2489 115.616L120.223 59.4669C121.15 58.3053 120.931 56.5971 119.75 55.7088L108.705 47.4239C107.575 46.5698 105.973 46.7919 105.113 47.9193L75.603 86.5765C74.6418 87.8235 72.8375 87.9431 71.7245 86.8328L58.9929 73.9356C57.9811 72.9107 56.3286 72.9107 55.3168 73.9527L45.7386 83.8604C44.7774 84.8683 44.7437 86.4569 45.6711 87.4819Z" fill="white"/>
</g>
<defs>
<linearGradient id="paint0_linear_597_104089" x1="81.8419" y1="175.219" x2="81.8419" y2="0.191406" gradientUnits="userSpaceOnUse">
<stop stop-color="#AAB1B9"/>
<stop offset="0.2097" stop-color="#C3C8CD"/>
<stop offset="0.5397" stop-color="#E4E6E8"/>
<stop offset="0.8149" stop-color="#F8F8F9"/>
<stop offset="1" stop-color="white"/>
</linearGradient>
<linearGradient id="paint1_linear_597_104089" x1="81.8404" y1="12.1059" x2="81.8404" y2="164.132" gradientUnits="userSpaceOnUse">
<stop stop-color="#AAB1B9"/>
<stop offset="0.2097" stop-color="#C3C8CD"/>
<stop offset="0.5397" stop-color="#E4E6E8"/>
<stop offset="0.8149" stop-color="#F8F8F9"/>
<stop offset="1" stop-color="white"/>
</linearGradient>
<linearGradient id="paint2_linear_597_104089" x1="7.5" y1="3" x2="163.5" y2="166" gradientUnits="userSpaceOnUse">
<stop stop-color="#0017FF"/>
<stop offset="0.931106" stop-color="#00031E"/>
</linearGradient>
<clipPath id="clip0_597_104089">
<rect width="168.04" height="180.201" fill="white" transform="translate(0.375 0.191406)"/>
</clipPath>
</defs>
</svg>
